<?xml version="1.0" encoding="UTF-8" standalone="no"?>
<!-- Created with Inkscape (http://www.inkscape.org/) -->

<svg
   width="100.08104mm"
   height="100.40892mm"
   viewBox="0 0 100.08104 100.40892"
   version="1.1"
   id="svg5"
   xmlns="http://www.w3.org/2000/svg"
   xmlns:svg="http://www.w3.org/2000/svg">
  <defs
     id="defs2" />
  <g
     id="layer1"
     transform="translate(-35.718918,-79.829284)">
    <path
       style="fill:#ffffff;stroke-width:0.0639901"
       d="m 69.385668,180.15556 c -0.947344,-0.26568 -1.892734,-1.01237 -2.250937,-1.77783 -0.10781,-0.23037 -0.22752,-0.60902 -0.266037,-0.84143 -0.227732,-1.37436 0.707235,-3.5624 2.445579,-5.72323 1.435818,-1.78479 4.503644,-5.2501 7.976402,-9.00987 1.215247,-1.31569 1.429638,-1.57718 1.429638,-1.74373 v -0.19594 l 6.990933,6.5e-4 6.990927,6.4e-4 -1.407788,1.39371 c -0.774279,0.76654 -3.006658,2.97644 -4.960827,4.91088 -3.885674,3.84643 -7.997227,7.83215 -9.500952,9.21018 -2.24903,2.06103 -3.907178,3.20336 -5.311185,3.65897 -0.64624,0.2097 -1.616689,0.26312 -2.135753,0.11755 z m 25.588154,-22.87723 c -4.593471,-0.066 -13.904628,-0.17981 -20.80826,-0.25417 -5.239052,-0.0565 -5.58294,-0.0671 -6.20209,-0.19332 -1.307938,-0.26654 -2.319971,-0.78576 -3.161951,-1.62223 -1.350603,-1.34177 -1.552775,-2.85983 -0.586898,-4.40696 0.862309,-1.38124 2.457139,-2.37068 4.352312,-2.70019 1.191578,-0.20717 8.368933,-0.60714 17.864199,-0.99548 1.794923,-0.0734 3.413612,-0.14865 3.597078,-0.16721 l 0.333582,-0.0337 -1.115578,-1.64344 c -0.613565,-0.90389 -2.603343,-3.8683 -4.421726,-6.58756 -3.203864,-4.79117 -3.315173,-4.94812 -3.597806,-5.07314 -0.160415,-0.071 -0.388516,-0.2029 -0.5069,-0.29319 -0.13145,-0.10027 -1.015563,-1.36366 -2.271242,-3.24558 -2.252685,-3.37619 -2.50535,-3.8384 -2.958187,-5.4117 -0.299198,-1.03949 -0.375527,-1.64676 -0.337073,-2.68166 0.03546,-0.95352 0.182878,-1.59056 0.561354,-2.42528 0.633769,-1.39773 2.126608,-3.01684 4.428461,-4.80303 0.352712,-0.2737 10.834388,-7.51268 17.243877,-11.90917 0.852096,-0.58449 1.550394,-1.08112 1.551761,-1.10363 0.0028,-0.0328 -8.426079,-6.785221 -8.83534,-7.078725 -0.09086,-0.06518 -2.153242,-0.04337 -10.69107,0.112901 -6.077628,0.111247 -10.782684,0.222971 -11.058415,0.262587 -0.26396,0.03788 -0.770592,0.05247 -1.125846,0.03232 -2.580338,-0.146439 -3.963781,-1.302397 -3.609469,-3.015967 0.30141,-1.457765 1.668578,-2.532317 4.369842,-3.434562 l 0.958496,-0.320147 6.182491,-0.667693 c 3.400373,-0.367231 8.284572,-0.900926 10.853773,-1.185989 2.569211,-0.285062 4.892617,-0.531014 5.163133,-0.546559 1.109461,-0.06376 1.682665,0.219266 5.004714,2.471105 1.446604,0.98057 5.135406,3.480694 8.197336,5.555828 3.06193,2.075138 5.65353,3.861764 5.75911,3.970288 0.3872,0.397966 0.61786,0.74784 3.48847,5.291443 3.22462,5.10396 3.07541,4.81551 2.93065,5.66503 -0.0474,0.27806 -0.079,2.53987 -0.0952,6.82352 l -0.0244,6.40757 1.13759,0.0416 c 0.62568,0.0229 3.95956,0.11134 7.40863,0.19658 3.44907,0.0852 6.64538,0.16939 7.1029,0.18701 2.2705,0.0874 3.28934,0.66782 3.65106,2.07977 0.36645,1.4304 -0.37,2.821 -1.90413,3.59543 -1.13166,0.57126 -2.18455,0.74971 -4.88243,0.82751 -2.98654,0.0862 -5.72268,0.21709 -12.79805,0.61259 -2.25245,0.1259 -4.25374,0.21284 -4.44731,0.1932 -0.57945,-0.0588 -0.9364,-0.21702 -1.34653,-0.59673 -0.31635,-0.29288 -0.45078,-0.49375 -0.82819,-1.23754 l -0.45052,-0.88791 -0.42286,-4.65799 c -0.23256,-2.56191 -0.42986,-4.6661 -0.43843,-4.676 -0.0117,-0.0136 -16.096464,10.0409 -16.213891,10.13518 -0.01286,0.0103 0.661753,1.1361 1.499223,2.50166 6.613588,10.78404 11.248648,18.66425 12.477108,21.2127 0.53209,1.10384 0.54291,2.00761 0.0362,3.02384 -0.44991,0.90229 -1.18917,1.5891 -2.27889,2.11719 -1.08699,0.52675 -1.28156,0.55979 -3.39147,0.57574 -1.020653,0.007 -3.425073,-0.008 -5.343181,-0.0362 z M 35.718918,137.98705 v -3.8714 l 16.493467,7.3e-4 16.493467,7.3e-4 2.511617,3.82899 c 1.381389,2.10596 2.51161,3.84776 2.51161,3.87068 0,0.0229 -8.552281,0.0416 -19.005077,0.0416 H 35.718918 Z m 0,-15.54961 v -3.8714 h 14.525768 c 7.989179,0 14.525769,0.0153 14.525769,0.0343 0,0.0188 -0.04353,0.10074 -0.09681,0.18202 -0.167763,0.25603 -0.467691,1.15357 -0.582656,1.74359 -0.142007,0.72886 -0.143466,2.02783 -0.0031,2.81562 0.134705,0.75635 0.473385,1.78467 0.805022,2.44427 l 0.262987,0.52306 H 50.437376 35.718918 Z m 0,-15.48562 v -3.87141 h 22.636467 22.636469 l -5.806893,3.87141 -5.806885,3.8714 H 52.548501 35.718918 Z M 117.95208,99.1101 c -1.11597,-0.140355 -2.48496,-0.571342 -3.39727,-1.069527 -1.26288,-0.689635 -2.58045,-1.854922 -3.38177,-2.99093 -0.71996,-1.020642 -1.29714,-2.359745 -1.58589,-3.679433 -0.16698,-0.763161 -0.17138,-2.994838 -0.007,-3.743425 0.29578,-1.349999 0.88801,-2.720179 1.62407,-3.757421 1.12925,-1.59133 2.95961,-2.9502 4.80252,-3.565422 1.11106,-0.370905 1.78686,-0.474658 3.09174,-0.474658 1.3049,0 1.98069,0.103753 3.09175,0.474658 3.20075,1.068514 5.63555,3.800693 6.39005,7.170515 0.12983,0.579864 0.14873,0.834964 0.14873,2.008043 0,1.173079 -0.0189,1.428179 -0.14873,2.008043 -0.31657,1.413911 -0.89039,2.665222 -1.74278,3.800486 -1.43025,1.904874 -3.5391,3.232438 -5.87674,3.699528 -0.72159,0.144186 -2.31037,0.207323 -3.00831,0.119543 z"
       id="path836" />
  </g>
</svg>
