<?xml version="1.0" encoding="UTF-8" standalone="no"?>
<!-- Created with Inkscape (http://www.inkscape.org/) -->

<svg
   width="79.087662mm"
   height="66.261101mm"
   viewBox="0 0 79.087662 66.261101"
   version="1.1"
   id="svg5"
   xmlns="http://www.w3.org/2000/svg"
   xmlns:svg="http://www.w3.org/2000/svg">
  <defs
     id="defs2" />
  <g
     id="layer1"
     transform="translate(-59.312501,-90.169921)">
    <path
       style="fill:#ffffff;stroke-width:0.352778"
       d="M 95.041467,156.13214 C 94.236015,155.80805 83.530313,145.70218 76.957693,139.06158 l -3.697864,-3.73611 -3.886858,-0.0412 c -2.137773,-0.0227 -4.913355,-0.14174 -6.167962,-0.26458 -2.09451,-0.20508 -2.347009,-0.3214 -3.086805,-1.42205 -0.787496,-1.17161 -0.805703,-1.40519 -0.805703,-10.33626 0,-9.69041 0.153881,-10.71033 1.744348,-11.56153 0.37886,-0.20276 3.143689,-0.37116 6.258154,-0.38118 l 5.579442,-0.0179 10.867166,-10.56538 C 94.21452,90.572671 94.680858,90.169921 95.995033,90.169921 c 1.055807,0 1.532399,0.21121 2.097419,0.92951 0.727177,0.92446 0.73116,1.09949 0.73116,32.129919 v 31.20039 l -1.031198,1.0312 c -1.086626,1.08663 -1.47998,1.1826 -2.750947,0.6712 z m 22.643503,-3.15068 c -1.06657,-0.43233 -1.61735,-1.24937 -1.65149,-2.44987 -0.0401,-1.41097 0.41878,-1.90858 3.83653,-4.16021 6.24725,-4.11574 10.59992,-10.40974 12.15227,-17.5723 0.68369,-3.15458 0.51827,-9.33207 -0.33673,-12.57425 -1.82267,-6.91164 -6.2116,-12.72852 -12.63758,-16.749249 -2.9095,-1.82046 -3.56719,-2.93351 -2.70985,-4.58603 1.14349,-2.20408 2.89591,-2.1421 6.60372,0.23356 13.32167,8.535449 18.90198,25.227189 13.29018,39.753409 -2.62715,6.80041 -8.11016,13.40866 -13.94131,16.80238 -2.87857,1.67533 -3.35422,1.80984 -4.60574,1.30256 z m -6.95062,-8.6832 c -1.05843,-0.5743 -1.52291,-1.79581 -1.1889,-3.12663 0.12969,-0.51672 1.3605,-1.74153 3.10191,-3.08681 4.91689,-3.79838 7.28633,-8.12365 7.59919,-13.87185 0.20136,-3.69949 -0.42635,-6.65238 -2.06227,-9.70139 -1.27658,-2.37929 -2.66399,-3.90045 -5.94556,-6.51877 -1.38986,-1.10895 -2.65316,-2.35725 -2.80733,-2.774 -0.43119,-1.16563 0.23742,-2.54161 1.58859,-3.26926 1.21332,-0.65342 1.23512,-0.65217 2.76346,0.15862 3.67095,1.94743 7.90493,6.41672 9.86889,10.41736 3.58026,7.29311 3.51002,14.31122 -0.21761,21.74105 -1.73469,3.45754 -5.67305,7.70799 -8.80766,9.5056 -2.1083,1.20905 -2.52916,1.26593 -3.89271,0.52608 z m -8.21251,-10.49568 c -0.67583,-0.67583 -1.22878,-1.46137 -1.22878,-1.74565 0,-0.91088 1.43079,-2.374 3.19656,-3.26878 2.39361,-1.21293 3.50787,-2.94806 3.50041,-5.45082 -0.008,-2.76926 -1.02479,-4.38394 -3.64622,-5.79174 -1.24327,-0.66767 -2.27869,-1.51746 -2.60291,-2.13626 -0.49013,-0.93545 -0.48282,-1.13074 0.0816,-2.17873 0.80338,-1.49179 2.03797,-1.92302 3.9169,-1.36814 2.95267,0.87199 5.43202,3.11475 7.21848,6.52967 0.68873,1.31657 0.8327,2.12938 0.84355,4.7625 0.0119,2.89253 -0.0863,3.3652 -1.10359,5.31283 -1.66621,3.18992 -4.69874,5.64682 -7.79471,6.31512 -1.00752,0.21749 -1.30704,0.0942 -2.38125,-0.98 z"
       id="path133" />
  </g>
</svg>
