<?xml version="1.0" encoding="UTF-8" standalone="no"?>
<!-- Created with Inkscape (http://www.inkscape.org/) -->

<svg
   width="96.555626mm"
   height="99.202354mm"
   viewBox="0 0 96.555626 99.202354"
   version="1.1"
   id="svg5"
   xmlns="http://www.w3.org/2000/svg"
   xmlns:svg="http://www.w3.org/2000/svg">
  <defs
     id="defs2" />
  <g
     id="layer1"
     transform="translate(-36.156474,-80.349095)">
    <path
       style="fill:#ffffff;stroke-width:0.193887"
       d="m 39.539893,179.30014 c -0.3252,-0.14155 -0.824558,-0.53478 -1.109685,-0.87362 -1.124431,-1.33633 -1.176285,-0.7661 1.403365,-15.43215 1.294105,-7.35736 2.394953,-13.52 2.446328,-13.69475 0.05813,-0.19781 2.269434,-1.29008 5.855318,-2.89241 3.169048,-1.41604 6.548049,-2.93783 7.508888,-3.38174 l 1.746983,-0.80713 -0.138249,-2.02015 c -0.07604,-1.11108 -0.08767,-3.24163 -0.02588,-4.73455 l 0.112364,-2.71442 -7.401305,-2.03582 c -4.070718,-1.11969 -7.478036,-2.08059 -7.57182,-2.13532 -0.306592,-0.17892 -6.209726,-19.53819 -6.209726,-20.36474 0,-2.03945 2.090195,-3.62653 4.073005,-3.0926 1.324088,0.35654 2.027965,1.26925 2.726425,3.53536 3.149128,10.21712 4.452425,14.37289 4.532675,14.45312 0.05213,0.0521 2.499067,0.76757 5.437637,1.58984 l 5.342853,1.49503 0.212152,-0.84253 0.212152,-0.84253 h 25.760243 25.760224 l 0.11867,0.53319 c 0.0653,0.29326 0.1559,0.67282 0.20143,0.84347 0.0707,0.26485 0.86378,0.0913 5.41689,-1.18555 2.93378,-0.82271 5.37682,-1.53855 5.42903,-1.59078 0.0803,-0.0803 1.38289,-4.23355 4.5328,-14.45326 0.69846,-2.26611 1.40235,-3.17882 2.72643,-3.53536 1.9854,-0.53463 4.07301,1.05319 4.07301,3.09787 0,0.83438 -5.88639,20.1678 -6.19738,20.35482 -0.0952,0.0573 -3.47925,1.01649 -7.51998,2.13154 l -7.34679,2.02739 v 4.78779 4.78779 l 0.59537,0.28189 c 0.32747,0.15506 3.66822,1.65705 7.42392,3.33779 4.25269,1.90315 6.86448,3.17544 6.92381,3.37281 0.0523,0.17436 1.14925,6.2935 2.43746,13.59818 1.68688,9.56522 2.30705,13.49097 2.21651,14.03083 -0.15745,0.93845 -1.22076,2.15281 -2.15522,2.46122 -1.5041,0.49639 -3.25354,-0.22799 -3.90893,-1.61855 -0.24881,-0.52792 -1.11005,-4.9263 -2.43554,-12.43843 -1.12784,-6.39194 -2.11685,-11.67825 -2.19782,-11.7474 -0.22356,-0.19085 -9.84645,-4.4538 -10.05094,-4.45256 -0.0981,5.7e-4 -0.42051,0.88774 -0.71644,1.97144 -1.17782,4.31323 -3.51504,9.33594 -5.95715,12.80202 -1.62022,2.29955 -4.478315,5.27975 -6.584284,6.86556 -2.632584,1.98236 -6.179136,3.59347 -9.182492,4.17136 -1.543394,0.29697 -5.700405,0.29697 -7.243799,0 -6.554765,-1.26124 -12.766631,-6.00609 -17.038909,-13.01492 -2.019906,-3.31374 -3.826704,-7.52655 -4.760602,-11.10002 -0.243854,-0.93309 -0.527252,-1.69652 -0.629775,-1.69652 -0.203312,0 -9.825896,4.25786 -10.05604,4.44967 -0.07767,0.0648 -1.064873,5.35017 -2.193767,11.74539 -1.502734,8.51305 -2.167304,11.8579 -2.480997,12.48707 -0.73041,1.465 -2.604851,2.14202 -4.112408,1.48537 z m 24.56972,-60.49479 c 0.339866,-4.96288 2.255939,-9.72798 5.431969,-13.50881 l 0.747801,-0.89021 -0.375818,-1.53337 c -1.08254,-4.416906 -2.935912,-7.804575 -6.020291,-11.004136 -3.174295,-3.29282 -6.129185,-4.976476 -11.831753,-6.741542 -1.1168,-0.345662 -1.751301,-1.232907 -1.751301,-2.448915 0,-0.720169 0.107335,-0.970524 0.647787,-1.510994 0.872468,-0.872454 1.506145,-0.999927 3.010124,-0.605459 1.894893,0.496991 5.116579,1.837212 6.967215,2.898352 6.285886,3.604247 10.640098,8.804557 13.016443,15.545702 0.336974,0.955912 0.64322,1.768562 0.68055,1.805902 0.03733,0.0374 0.665744,-0.23083 1.396478,-0.59592 2.80996,-1.403896 5.248707,-1.962458 8.502417,-1.947348 3.349809,0.0159 5.51688,0.532001 8.454229,2.014768 0.650324,0.32828 1.21306,0.56621 1.250529,0.52874 0.03748,-0.0374 0.343826,-0.85023 0.6808,-1.806142 2.376345,-6.741145 6.730558,-11.941455 13.016438,-15.545702 1.85064,-1.06114 5.07233,-2.401361 6.96721,-2.898352 1.50398,-0.394468 2.13767,-0.266995 3.01014,0.605459 0.5363,0.536295 0.64765,0.792952 0.64705,1.491193 -7.7e-4,0.974401 -0.56097,2.029377 -1.21062,2.280169 -0.24017,0.09264 -1.27543,0.433096 -2.30059,0.756412 -4.00356,1.262588 -7.21436,3.223079 -10.00789,6.110716 -3.12376,3.229003 -5.164325,6.956529 -6.161112,11.254587 l -0.309129,1.33294 0.750253,0.89667 c 3.193518,3.81677 5.100718,8.55468 5.440428,13.51529 l 0.13833,2.01983 h -20.463009 -20.463 z"
       id="path1306" />
  </g>
</svg>
