<?xml version="1.0" encoding="UTF-8" standalone="no"?>
<!-- Created with Inkscape (http://www.inkscape.org/) -->

<svg
   width="225.30887mm"
   height="259.14368mm"
   viewBox="0 0 225.30884 259.14364"
   version="1.1"
   id="svg5"
   xmlns="http://www.w3.org/2000/svg"
   xmlns:svg="http://www.w3.org/2000/svg">
  <defs
     id="defs2" />
  <g
     id="layer1"
     transform="translate(71.846357,-36.306185)">
    <path
       style="fill:#ffffff;stroke-width:0.264583"
       d="m 27.466269,295.39701 c -30.8131762,-1.0378 -58.317006,-3.46424 -88.238536,-7.78456 -11.28521,-1.62944 -11.14898,-1.60641 -11.05633,-1.8699 0.0419,-0.11904 6.38643,-17.41994 14.09903,-38.44643 8.97804,-24.47638 14.1657,-38.27467 14.4198,-38.35419 0.21828,-0.0683 2.06375,-0.7736 4.10104,-1.5673 21.40564,-8.33932 45.9441798,-14.52534 66.542704,-16.775 6.135164,-0.67005 21.488847,-0.6666 27.913541,0.006 21.221755,2.22261 43.234204,7.77245 64.822912,16.34332 l 5.29167,2.10083 14.08292,38.40866 c 7.7456,21.12476 14.0534,38.43817 14.01733,38.47425 -0.1164,0.11639 -12.28377,1.90464 -19.50129,2.86612 -22.57818,3.00773 -46.202548,5.13269 -69.320834,6.23526 -5.69722,0.27171 -32.198071,0.53025 -37.173957,0.36266 z m 7.011458,-125.02067 c -8.653383,-0.99496 -17.019204,-3.88936 -25.0031242,-8.65054 -15.90056,-9.48224 -29.9892598,-27.7123 -33.7762598,-43.70473 -0.46993,-1.98449 -0.54925,-3.46572 -0.67455,-12.59602 -0.12195,-8.887144 -0.0798,-10.716373 0.29867,-12.96458 1.93762,-11.50948 6.56282,-22.018404 13.61204,-30.927938 C -8.9036072,58.80011 -3.5676472,53.419507 -0.8441472,51.225657 9.5959233,42.815916 22.187453,37.685968 35.184718,36.547035 c 19.563762,-1.714346 38.870391,5.782009 53.078407,20.60922 9.095084,9.491453 15.183855,21.17387 17.794235,34.14147 l 0.7154,3.553886 -0.14115,10.460249 c -0.12481,9.25015 -0.2028,10.72042 -0.67409,12.70921 -2.5081,10.5837 -9.889996,22.85713 -19.514519,32.4456 -11.564765,11.52145 -25.15254,18.36165 -39.585576,19.9277 -2.973993,0.3227 -9.498983,0.31319 -12.379698,-0.018 z"
       id="path3547" />
  </g>
</svg>
