<?xml version="1.0" encoding="UTF-8" standalone="no"?>
<!-- Created with Inkscape (http://www.inkscape.org/) -->

<svg
   width="95.756371mm"
   height="95.738609mm"
   viewBox="0 0 95.756371 95.738609"
   version="1.1"
   id="svg5"
   xmlns="http://www.w3.org/2000/svg"
   xmlns:svg="http://www.w3.org/2000/svg">
  <defs
     id="defs2" />
  <g
     id="layer1"
     transform="translate(-36.933434,-81.829783)">
    <path
       style="fill:#ffffff;stroke-width:0.209113"
       d="m 78.329101,177.25519 c -8.37952,-1.13264 -16.768887,-4.74047 -23.502274,-10.10712 -9.563088,-7.622 -16.001549,-19.05831 -17.5818,-31.22966 -0.415457,-3.19993 -0.415457,-9.22093 0,-12.42085 1.526991,-11.76114 7.591692,-22.86748 16.617792,-30.432296 7.063076,-5.919605 15.754356,-9.757468 24.738386,-10.923894 3.199912,-0.415449 9.22092,-0.415449 12.420831,0 21.472914,2.787908 38.568264,19.88327 41.356184,41.35619 0.41545,3.19992 0.41545,9.22092 0,12.42085 -1.52699,11.76113 -7.5917,22.86746 -16.61781,30.43228 -7.06306,5.91959 -15.75435,9.75745 -24.738374,10.92389 -3.080039,0.39988 -9.665353,0.38982 -12.692935,-0.0194 z m 10.560234,-3.43172 c 10.374814,-0.97523 19.787985,-5.41539 27.205195,-12.83259 6.64127,-6.64127 10.79428,-14.6767 12.4395,-24.06848 0.38723,-2.21047 0.47849,-3.51957 0.48844,-7.00529 0.0112,-3.98845 -0.33099,-7.94632 -0.68736,-7.94632 -0.0759,0 -0.25465,0.49403 -0.3972,1.09784 -0.45909,1.94468 -1.09031,2.90835 -2.29168,3.49872 -0.58954,0.28969 -1.12396,0.64687 -1.18763,0.79375 -0.0636,0.14689 0.17369,0.99376 0.52741,1.88202 0.76348,1.91715 0.75011,3.17395 -0.0457,4.30758 -0.27586,0.39297 -1.13748,1.60913 -1.91468,2.7026 -0.77721,1.09346 -1.70792,2.61813 -2.06827,3.38817 -0.61458,1.31336 -0.64726,1.50261 -0.52743,3.0565 0.2025,2.6257 -0.0433,3.40173 -2.42507,7.6584 -2.36421,4.22518 -4.0909,6.68026 -6.20841,8.82738 -1.98515,2.01293 -3.51835,2.9861 -4.88041,3.09779 -1.80919,0.14831 -1.99781,-0.11192 -3.57301,-4.9284 -0.74105,-2.26595 -1.4705,-4.71752 -1.621,-5.44796 -0.26801,-1.30067 -0.25922,-1.36892 0.4253,-3.30599 0.88155,-2.49462 0.82577,-3.23491 -0.45435,-6.03073 -0.52662,-1.15013 -1.05917,-2.65573 -1.18345,-3.34582 -0.12424,-0.69007 -0.43219,-1.53479 -0.684245,-1.87715 -0.252051,-0.34236 -0.819124,-1.16575 -1.260158,-1.82976 -0.970409,-1.46095 -1.232756,-1.49983 -3.753993,-0.55626 -3.994082,1.49478 -4.905549,1.55384 -7.096028,0.45978 -2.841069,-1.419 -5.770538,-4.87576 -6.462139,-7.62529 -0.319014,-1.26826 0.274627,-7.27068 0.880762,-8.90561 0.52883,-1.4264 1.718897,-2.99157 3.352359,-4.40899 0.721703,-0.62625 1.581414,-1.57292 1.910469,-2.10372 0.329053,-0.53081 0.885273,-1.26748 1.236043,-1.6371 l 0.637766,-0.672 -0.608706,-0.23066 c -2.12879,-0.80665 -2.831842,-3.94882 -1.480303,-6.61595 1.052249,-2.07652 2.838712,-2.99696 5.816742,-2.99696 h 1.627974 l 1.104826,-0.975137 c 0.607658,-0.536322 1.137269,-1.057108 1.176933,-1.157313 0.03971,-0.100218 -0.07793,-0.557262 -0.261388,-1.015676 -0.900892,-2.251532 0.06573,-3.75779 3.012317,-4.693839 0.632569,-0.200959 1.620629,-0.715046 2.195689,-1.142423 0.57506,-0.427365 1.32787,-0.925679 1.67291,-1.107341 l 0.62733,-0.330321 -1.46379,-0.659684 c -2.33959,-1.054368 -6.131577,-2.249229 -8.947604,-2.819416 -3.245357,-0.657106 -3.70376,-0.669368 -3.70376,-0.09897 0,0.26024 -0.72621,1.155535 -1.848493,2.278899 -2.537184,2.539612 -3.809831,3.161972 -7.279814,3.560055 -3.047725,0.349643 -3.975226,0.684122 -6.483087,2.337944 -3.319189,2.188886 -4.330963,2.513182 -4.974431,1.5945 -0.486687,-0.694841 -0.396749,-1.874874 0.301812,-3.959957 0.345039,-1.029855 0.627341,-1.914177 0.627341,-1.965145 0,-0.171279 -1.794151,-0.09474 -3.046018,0.130184 -1.661007,0.298226 -4.063841,1.01148 -4.063841,1.206314 0,0.08615 0.517556,0.410533 1.150124,0.720773 1.067793,0.523686 1.150125,0.616496 1.150125,1.296448 0,0.669917 -0.09839,0.787913 -1.153638,1.383457 -1.263981,0.713341 -1.773952,1.288605 -1.773952,2.001049 0,0.2554 0.282303,1.30698 0.627341,2.33686 0.818561,2.443229 0.813208,3.152889 -0.03104,4.114439 -0.82397,0.93845 -1.728708,1.41987 -2.331937,1.24085 -0.25303,-0.0751 -0.817679,-0.41753 -1.254774,-0.76101 -0.437095,-0.34346 -0.923211,-0.57515 -1.080257,-0.5149 -0.157038,0.0603 -0.39617,0.65666 -0.531389,1.3253 -0.342192,1.6921 -0.639994,2.07015 -1.926684,2.44585 -1.294114,0.37788 -2.704875,1.25105 -4.600771,2.84758 -1.124523,0.94696 -1.484672,1.41625 -2.038803,2.65667 -1.207726,2.70347 -1.634907,3.2024 -4.367325,5.10073 -1.744613,1.21206 -2.611467,1.9519 -2.793994,2.38461 -0.398353,0.94434 -0.295604,2.95774 0.231472,4.53576 0.539611,1.61555 1.903622,3.83877 2.463154,4.01472 0.210728,0.0662 0.84508,-0.019 1.409667,-0.18957 0.564588,-0.17053 1.270346,-0.30998 1.568352,-0.30988 0.969727,2e-4 3.016922,1.16903 4.622523,2.63898 0.864235,0.79121 2.220635,1.81497 3.014223,2.27502 2.067859,1.19876 3.200191,2.3043 3.639645,3.55357 0.432834,1.23044 0.810223,1.48181 4.426167,2.94819 4.027102,1.63312 5.223789,2.3328 5.670006,3.3152 0.577421,1.27125 0.486277,1.94386 -0.552671,4.07849 l -0.946954,1.94563 0.0301,2.32602 c 0.037,2.85857 -0.144335,3.32343 -1.575848,4.03986 -1.447359,0.72436 -2.359378,1.43961 -2.716683,2.13056 -0.165395,0.31985 -0.345868,1.37362 -0.40105,2.34173 -0.07056,1.23787 -0.260501,2.14679 -0.640076,3.06298 -0.654375,1.57951 -0.676516,2.49781 -0.101289,4.20116 0.517871,1.53349 0.880454,1.79321 4.93051,3.53187 6.810185,2.9235 14.175062,4.08772 21.502129,3.39897 z M 50.608508,157.34109 c -0.152799,-0.44349 -0.424689,-1.92557 -0.604211,-3.29354 -0.451519,-3.44055 -0.619284,-3.92353 -1.878521,-5.4079 -3.708153,-4.37114 -4.844249,-7.3468 -5.014807,-13.13477 l -0.07258,-2.46309 -0.988613,-1.71918 c -1.616979,-2.81189 -1.643238,-2.80389 -1.48168,0.45187 0.438468,8.83613 3.387484,17.13369 8.61135,24.22953 0.867876,1.17887 1.606961,2.14341 1.642412,2.14341 0.03544,0 -0.06055,-0.36284 -0.21335,-0.80633 z m 64.531932,-43.00676 c 0.61563,-0.31837 0.92968,-0.99239 0.79301,-1.70205 -0.15019,-0.78013 -1.64738,-1.32411 -4.2858,-1.55725 -2.72754,-0.24102 -3.5336,-0.46327 -3.85442,-1.06274 -0.20303,-0.37934 -0.25135,-0.36713 -0.9403,0.23779 -0.77798,0.68307 -1.86992,0.85747 -2.35586,0.37629 -0.52739,-0.52225 0.78993,2.05764 1.38809,2.71848 l 0.61517,0.67962 2.27752,0.02 c 1.25263,0.0112 2.74802,0.14107 3.32308,0.28884 1.44899,0.37245 2.32059,0.37271 3.03951,0.001 z m -11.042,-4.93608 c 0.0929,-0.63306 0.0473,-0.67598 -1.49234,-1.40277 -0.8735,-0.41236 -2.14385,-1.10655 -2.823008,-1.54264 -1.424229,-0.91454 -1.739885,-0.95821 -2.51551,-0.34811 -0.659634,0.51888 -2.6874,2.91095 -2.568445,3.02989 0.04457,0.0446 0.543468,-0.0652 1.108747,-0.24392 0.565267,-0.1787 1.990617,-0.38049 3.167438,-0.44844 2.395698,-0.13837 3.566658,0.14878 4.452348,1.09154 0.2674,0.28462 0.50615,0.51751 0.53055,0.51751 0.0244,0 0.0875,-0.29387 0.14022,-0.65306 z"
       id="path1567" />
  </g>
</svg>
