<?xml version="1.0" encoding="UTF-8" standalone="no"?>
<!-- Created with Inkscape (http://www.inkscape.org/) -->

<svg
   width="150.17865mm"
   height="123.14262mm"
   viewBox="0 0 150.17865 123.14261"
   version="1.1"
   id="svg5"
   xmlns="http://www.w3.org/2000/svg"
   xmlns:svg="http://www.w3.org/2000/svg">
  <defs
     id="defs2" />
  <g
     id="layer1"
     transform="translate(-3.9757676,-71.862105)">
    <path
       style="fill:#ffffff;stroke-width:0.163327"
       d="m 33.537441,194.37172 c -5.360301,-1.36867 -10.189012,-3.70722 -14.443906,-6.99525 -1.681049,-1.29904 -4.709107,-4.22603 -6.146894,-5.9417 -2.575881,-3.07375 -5.4868152,-8.15844 -6.7676352,-11.82142 -0.753543,-2.15503 -1.570973,-5.45813 -1.901718,-7.68454 -0.402027,-2.70622 -0.402027,-8.3837 0,-11.0899 1.037599,-6.98457 3.943186,-13.60912 8.3850742,-19.11744 1.678393,-2.08135 4.751676,-5.06185 6.747278,-6.54362 4.630192,-3.43799 9.720852,-5.79866 15.126481,-7.01453 4.076723,-0.91698 2.525349,-0.88569 44.184781,-0.89119 25.659068,-0.004 39.042068,0.0519 40.152268,0.16586 7.33442,0.75266 14.53195,3.75069 20.50229,8.53992 1.5691,1.25872 4.62317,4.32228 5.88864,5.90697 4.19193,5.24944 7.11611,11.93333 8.1841,18.70677 0.4166,2.6422 0.4166,8.94239 0,11.58458 -2.38877,15.14994 -12.96759,27.33911 -27.54931,31.7429 -3.67076,1.10861 -3.76481,1.11697 -11.79343,1.04983 l -7.23416,-0.0605 -2.12326,-0.58742 c -6.41845,-1.77577 -11.87037,-4.74309 -16.44322,-8.94958 l -1.41715,-1.30359 h -8.062646 -8.062667 l -0.728144,0.75543 c -1.051645,1.09105 -3.744546,3.22258 -5.57894,4.41592 -3.162095,2.05709 -6.425483,3.57024 -10.10434,4.6851 -3.46463,1.04998 -3.860272,1.08719 -11.481056,1.07974 l -6.882537,-0.007 -2.449899,-0.62554 z m 11.759542,-9.1701 c 7.659785,-0.6622 14.242475,-3.92009 19.388705,-9.59582 0.544884,-0.60096 1.099234,-1.25801 1.231889,-1.46012 l 0.241175,-0.36749 H 78.859627 91.56049 l 0.67647,0.87683 c 0.96759,1.25417 3.64216,3.80618 5.19795,4.9597 11.61388,8.61118 27.91371,7.27474 37.97451,-3.11355 3.51084,-3.62514 5.98073,-8.0308 7.21518,-12.87006 0.6915,-2.7107 0.91341,-4.49769 0.91015,-7.32891 -0.008,-7.59043 -2.84031,-14.53673 -8.14638,-19.9842 -4.25955,-4.37306 -9.2464,-7.09176 -15.23307,-8.30467 l -1.85111,-0.37504 H 78.860697 39.417212 l -1.82379,0.36982 c -9.748009,1.97658 -17.79371,8.68152 -21.424911,17.85454 -2.497657,6.3095 -2.595192,13.91685 -0.261606,20.4025 2.100259,5.83713 6.608036,11.36366 12.002147,14.71457 3.775168,2.34521 8.432205,3.87912 12.814774,4.22084 2.38357,0.18587 2.43521,0.18587 4.573157,9.9e-4 z m -6.123601,-11.68359 c -0.31376,-0.13605 -0.74335,-0.40883 -0.954645,-0.6061 -0.822058,-0.76755 -0.843109,-0.917 -0.843109,-5.98536 v -4.74461 h -4.660072 c -3.544443,0 -4.786504,-0.0528 -5.188179,-0.22065 -0.699575,-0.2923 -1.544065,-1.27437 -1.668169,-1.93994 -0.05483,-0.29385 -0.07672,-2.12042 -0.04896,-4.05902 l 0.05068,-3.52472 0.471022,-0.61707 c 0.889335,-1.16508 1.213234,-1.22716 6.422671,-1.23122 l 4.607122,-0.004 0.04776,-4.872 0.04777,-4.872 0.457589,-0.59963 c 0.853904,-1.11893 1.076509,-1.17091 5.013868,-1.17091 1.931343,0 3.707994,0.0551 3.9481,0.12238 0.585367,0.16413 1.39408,0.86333 1.713806,1.48161 0.219175,0.42381 0.263382,1.24802 0.279364,5.20702 l 0.01897,4.70349 h 4.538157 c 4.856245,0 5.269094,0.0583 6.133411,0.86526 0.801317,0.74819 0.844179,0.99864 0.844179,4.93284 0,3.99449 -0.0319,4.16732 -0.924541,5.01192 -0.255055,0.24134 -0.670644,0.51694 -0.923526,0.61249 -0.285192,0.10771 -2.207759,0.17371 -5.063126,0.17373 h -4.603363 l -0.02206,4.70831 c -0.02362,5.05174 -0.04966,5.22519 -0.903766,6.02263 -0.824782,0.77009 -1.37108,0.8657 -4.907866,0.85888 -2.587901,-0.005 -3.437424,-0.0605 -3.883083,-0.25379 z m 73.807788,-0.0497 c -1.82598,-0.58422 -3.06713,-1.77055 -3.75217,-3.58646 -0.28131,-0.74573 -0.33417,-1.17171 -0.27656,-2.22857 0.12118,-2.22412 1.20832,-3.87697 3.19186,-4.85297 0.99407,-0.48912 1.22183,-0.53623 2.5638,-0.53011 1.26105,0.005 1.60496,0.0707 2.39177,0.45147 1.00951,0.48858 2.21702,1.67038 2.7259,2.66784 1.32443,2.59612 0.3165,6.03883 -2.19979,7.51345 -1.47907,0.86682 -3.08982,1.06287 -4.64481,0.56535 z m -11.29805,-11.45382 c -1.62376,-0.40995 -2.99202,-1.52799 -3.74712,-3.0618 -0.48788,-0.99104 -0.5376,-1.22859 -0.53685,-2.56553 6.6e-4,-1.16591 0.0748,-1.634 0.35554,-2.24295 1.39024,-3.01614 4.77583,-4.3187 7.72687,-2.97282 2.67701,1.22091 4.02069,4.40592 3.0462,7.22067 -0.40119,1.15885 -1.79184,2.65696 -2.99449,3.22592 -1.0132,0.4793 -2.7953,0.66284 -3.85015,0.39651 z m 22.95587,-0.0598 c -1.63224,-0.53331 -3.03028,-1.73618 -3.69915,-3.18272 -0.28295,-0.61195 -0.34907,-1.06435 -0.34907,-2.38824 0,-1.4824 0.0441,-1.72061 0.47888,-2.579 0.58447,-1.15427 1.60665,-2.12559 2.84072,-2.69939 0.77007,-0.35804 1.16239,-0.43156 2.31861,-0.43451 1.24714,-0.004 1.505,0.0523 2.48215,0.53327 1.20697,0.5942 2.17356,1.56486 2.77323,2.78489 0.54791,1.11474 0.61148,3.20208 0.1362,4.46927 -0.77421,2.06377 -2.86058,3.55924 -5.11404,3.66563 -0.71061,0.0336 -1.45268,-0.0336 -1.86745,-0.16915 z m -11.79336,-11.62779 c -1.54614,-0.56189 -2.86792,-1.75571 -3.48886,-3.15115 -0.46734,-1.05022 -0.56809,-2.99162 -0.21103,-4.06661 0.56882,-1.71258 1.82587,-3.03389 3.52366,-3.70375 1.08532,-0.42823 2.93041,-0.39397 4.15979,0.0772 1.17077,0.44875 2.55333,1.74706 3.04569,2.86011 1.30227,2.94399 0.10238,6.30045 -2.75124,7.69665 -1.149,0.56214 -3.15192,0.69676 -4.27801,0.28753 z M 73.853778,112.40806 c 0.242657,-4.37608 1.758152,-8.78073 4.377638,-12.723315 1.616254,-2.43259 4.786814,-5.60317 7.219404,-7.21941 2.85011,-1.89365 5.53061,-3.05278 9.00762,-3.89521 l 1.7966,-0.4353 16.82267,-0.10425 c 9.25249,-0.0575 16.96968,-0.15121 17.14935,-0.20843 0.17966,-0.0572 0.91945,-0.2511 1.64397,-0.43071 6.42448,-1.5925 11.37098,-7.49763 11.93381,-14.246561 l 0.10692,-1.282769 h 5.12132 5.12133 v 0.780089 c 0,1.93312 -0.56849,5.127482 -1.32391,7.439161 -3.26882,10.00296 -12.58299,17.31235 -23.01096,18.05806 -0.94369,0.0674 -8.36731,0.12931 -16.4969,0.13759 -15.26676,0.0155 -15.67868,0.0313 -17.96604,0.70228 -1.29474,0.37974 -3.61163,1.543785 -4.68166,2.352185 -3.79358,2.86588 -6.22055,7.16193 -6.53438,11.56664 l -0.1019,1.42911 h -5.14573 -5.145714 z"
       id="path2053" />
  </g>
</svg>
