<?xml version="1.0" encoding="UTF-8" standalone="no"?>
<!-- Created with Inkscape (http://www.inkscape.org/) -->

<svg
   width="211.40239mm"
   height="253.45171mm"
   viewBox="0 0 211.40238 253.45169"
   version="1.1"
   id="svg5"
   xmlns="http://www.w3.org/2000/svg"
   xmlns:svg="http://www.w3.org/2000/svg">
  <defs
     id="defs2" />
  <g
     id="layer1"
     transform="translate(26.913806,35.452184)">
    <path
       style="fill:#ffffff;stroke-width:0.264583"
       d="M 74.553901,215.68401 C 41.71063,197.25691 15.340093,173.75516 -3.1042062,146.47413 -15.976265,127.43502 -23.502407,108.50624 -26.312517,88.103592 l -0.601289,-4.365625 V 40.08864 -3.5606867 l 12.038541,-3.6121579 c 6.6211983,-1.9866875 21.9802605,-6.6166264 34.13125,-10.2887514 12.150989,-3.672129 29.117395,-8.793331 37.703124,-11.380451 8.585729,-2.58712 17.02104,-5.132768 18.745139,-5.656996 l 3.13472,-0.953141 4.670488,1.435541 c 2.568766,0.789548 8.301892,2.521129 12.740278,3.847957 7.358136,2.199671 17.752956,5.336486 53.578126,16.16812 6.83948,2.067896 17.43604,5.2629755 23.54791,7.1001735 l 11.1125,3.340362 V 39.824385 c 0,47.630676 0.0632,45.493113 -1.61487,54.629207 -5.08973,27.710788 -21.50534,56.395338 -46.53929,81.322558 -15.77562,15.70835 -33.03838,28.61056 -53.621317,40.07664 -2.133803,1.18867 -3.919741,2.15468 -3.96875,2.14669 -0.04901,-0.008 -1.934569,-1.04996 -4.190142,-2.31547 z m 4.16144,-234.36759 c -0.03989,-0.03989 -3.998862,1.115912 -8.797713,2.568454 -4.798853,1.452541 -16.642842,5.025421 -26.319977,7.9397381 C 33.920516,-5.2610739 21.954735,-1.64468 17.007027,-0.13895737 12.059318,1.3667653 3.9630685,3.8013659 -0.98463977,5.2712666 -5.932348,6.7411699 -10.255502,8.0615598 -10.591647,8.2054667 l -0.611175,0.2616491 0.09875,36.8416772 c 0.108719,40.559448 0.05622,39.165782 1.8065221,47.954174 1.8901817,9.490723 4.6090159,17.254033 9.63677098,27.516663 6.03478062,12.31818 14.14765192,24.11237 24.75185992,35.98334 3.910976,4.37817 13.633837,13.90002 18.153475,17.77816 9.942375,8.53119 19.791024,15.67361 31.17705,22.61017 l 4.233333,2.57902 0.06646,-109.170685 c 0.03655,-60.043879 0.03383,-109.203326 -0.0061,-109.243215 z"
       id="path3043" />
  </g>
</svg>
