<?xml version="1.0" encoding="UTF-8" standalone="no"?>
<!-- Created with Inkscape (http://www.inkscape.org/) -->

<svg
   width="119.09718mm"
   height="102.0798mm"
   viewBox="0 0 119.09717 102.07979"
   version="1.1"
   id="svg5"
   xmlns="http://www.w3.org/2000/svg"
   xmlns:svg="http://www.w3.org/2000/svg">
  <defs
     id="defs2" />
  <g
     id="layer1"
     transform="translate(11.743461,-104.93351)">
    <path
       style="fill:#ffffff;stroke-width:0.492661"
       d="m 82.892228,206.13994 c -0.280496,-0.52412 -0.509991,-3.71394 -0.509991,-7.08852 v -6.13556 l -12.193381,-0.22974 c -11.174237,-0.21052 -12.529439,-0.33144 -16.214245,-1.44652 -4.678774,-1.41589 -8.705727,-3.71774 -11.519419,-6.58469 l -1.994177,-2.0319 2.203841,-4.21318 c 1.212106,-2.31723 2.918432,-6.46738 3.791835,-9.22253 l 1.587993,-5.00936 1.387118,2.89009 c 3.757294,7.82847 8.952428,9.92249 24.698354,9.9553 l 8.252081,0.0168 v -6.85698 c 0,-3.77133 0.134625,-7.20765 0.299042,-7.63625 0.744681,-1.9406 2.549154,-0.64359 13.173869,9.46899 5.919812,5.63446 10.976952,10.62628 11.238102,11.09293 0.26115,0.46666 0.33915,1.27591 0.17336,1.79838 -0.30044,0.94664 -17.595928,17.8516 -21.169477,20.69149 -2.207658,1.75442 -2.526587,1.80824 -3.204868,0.54086 z M -10.238157,193.8918 c -1.171783,-0.94846 -1.239671,-1.28756 -1.396597,-6.97616 -0.245905,-8.91409 -1.164783,-8.29489 12.59412216,-8.48691 11.12515384,-0.15529 11.23979884,-0.16776 13.76692484,-1.50036 5.764579,-3.03978 10.175855,-9.62267 12.71771,-18.9785 0.680962,-2.5064 1.803338,-6.60782 2.49415,-9.11424 3.577962,-12.98134 9.643463,-21.90027 17.762242,-26.11819 5.69345,-2.95789 8.284369,-3.39669 22.11896,-3.74619 l 12.316555,-0.31115 0.138534,-6.37268 c 0.151756,-6.98251 0.495188,-8.01666 2.337889,-7.04128 0.628397,0.33262 5.926128,5.12602 11.772748,10.652 8.861429,8.37546 10.630209,10.27396 10.630209,11.40991 0,1.12848 -1.78503,3.0851 -10.385259,11.38357 -5.711883,5.51147 -10.89389,10.33239 -11.515565,10.71318 -0.621657,0.38076 -1.49074,0.55401 -1.931277,0.38495 -0.690385,-0.26493 -0.800989,-1.32995 -0.800989,-7.71274 v -7.4054 l -8.498409,0.0168 c -9.854729,0.0199 -14.992829,0.77784 -18.606374,2.74457 -4.805504,2.61548 -7.359891,7.37955 -11.523293,21.49164 -1.472473,4.991 -3.247433,10.47784 -3.944372,12.19299 -3.399021,8.36504 -10.279216,16.06071 -17.592332,19.67743 -6.564451,3.24649 -8.218044,3.55806 -20.3853974,3.84115 -10.3474064,0.24072 -10.8943697,0.20698 -12.0702106,-0.74478 z m 33.560709,-51.97997 c -1.4211,-2.29939 -5.379884,-5.9225 -7.995494,-7.31753 -2.046164,-1.09132 -2.793098,-1.16746 -13.7413352,-1.40053 -6.3676528,-0.13555 -11.8546698,-0.42582 -12.1933748,-0.64504 -0.929104,-0.60134 -0.857371,-13.1232 0.08254,-14.41029 0.6416604,-0.87866 1.4602602,-0.96872 10.07961488,-1.10914 10.19583222,-0.16609 15.28726912,0.42339 20.40930012,2.36297 3.105211,1.17587 9.253871,5.08753 11.105193,7.06489 l 1.15524,1.23389 -2.018942,3.39837 c -1.11042,1.8691 -2.815927,5.37959 -3.790029,7.80106 -0.974101,2.42149 -1.834917,4.4698 -1.912899,4.55178 -0.07802,0.0819 -0.60892,-0.6067 -1.179818,-1.53043 z"
       id="path3286" />
  </g>
</svg>
