<?xml version="1.0" encoding="UTF-8" standalone="no"?>
<!-- Created with Inkscape (http://www.inkscape.org/) -->

<svg
   width="57.264488mm"
   height="51.702412mm"
   viewBox="0 0 57.264485 51.702411"
   version="1.1"
   id="svg5"
   xmlns="http://www.w3.org/2000/svg"
   xmlns:svg="http://www.w3.org/2000/svg">
  <defs
     id="defs2" />
  <g
     id="layer1"
     transform="translate(-66.64254,-102.48874)">
    <path
       style="fill:#ffffff;stroke-width:0.0782329"
       d="m 70.161988,154.11213 c -0.657425,-0.10584 -1.486226,-0.55016 -2.010575,-1.07786 -0.83328,-0.83861 -1.293511,-1.85186 -1.430085,-3.14849 -0.105051,-0.99735 -0.105051,-42.08683 0,-43.08418 0.237266,-2.25259 1.680287,-3.96969 3.55801,-4.23379 0.749539,-0.10543 49.241352,-0.10543 49.990892,0 1.87772,0.2641 3.32075,1.9812 3.55801,4.23379 0.10505,0.99735 0.10505,42.08683 0,43.08418 -0.23525,2.23345 -1.65623,3.94298 -3.51889,4.23344 -0.64384,0.1004 -49.522653,0.0935 -50.147362,-0.007 z m 49.935352,-3.41477 c 0.0688,-0.0761 0.19674,-0.2961 0.28422,-0.48895 0.15838,-0.34917 0.15906,-0.42442 0.16077,-17.93327 l 0.002,-17.58263 -25.269934,-0.0198 -25.269932,-0.0198 0.02023,17.68066 c 0.01957,17.10212 0.02502,17.68962 0.16657,17.95447 0.08049,0.1506 0.20036,0.33543 0.266383,0.41073 0.113848,0.12984 1.393991,0.1369 24.81742,0.1369 23.517653,0 24.703363,-0.007 24.822553,-0.13831 z m -39.964522,-5.21334 c -0.313987,-0.13676 -0.634421,-0.52596 -0.749634,-0.91051 -0.171559,-0.57261 0.153615,-1.22134 0.747364,-1.49101 0.305483,-0.13874 0.76765,-0.14499 10.844402,-0.14664 l 10.52532,-0.002 0.34449,0.17603 c 0.57099,0.29176 0.83826,0.83998 0.70265,1.44125 -0.0906,0.40169 -0.30127,0.66153 -0.70265,0.86662 l -0.34449,0.17603 -10.564437,-0.003 c -8.606654,-0.002 -10.60865,-0.0224 -10.803015,-0.107 z m 24.874242,-0.039 c -0.45007,-0.20439 -0.68224,-0.56067 -0.71521,-1.09754 -0.0349,-0.56832 0.18905,-0.97422 0.6806,-1.23354 l 0.34881,-0.18402 5.16661,0.0217 5.16661,0.0217 0.2768,0.17215 c 0.85473,0.53162 0.81005,1.82412 -0.0786,2.27262 l -0.34875,0.17603 -5.08812,-0.002 c -4.79285,-0.001 -5.10674,-0.0102 -5.4088,-0.14735 z m -29.134062,-4.9303 c -0.398302,-0.12303 -0.83844,-0.39323 -1.153061,-0.70785 -1.26568,-1.26568 -0.894194,-3.43401 0.72482,-4.23071 l 0.389125,-0.19148 h 8.527398 8.527397 l 0.340268,0.18158 c 0.518146,0.27651 1.001921,0.76508 1.242349,1.25466 0.188243,0.38332 0.216686,0.53393 0.216315,1.14545 -3.84e-4,0.62258 -0.02693,0.75654 -0.229386,1.1571 -0.267339,0.52895 -0.765515,1.01685 -1.281987,1.25554 l -0.365792,0.16905 -8.370931,0.0135 c -4.604013,0.008 -8.458945,-0.0137 -8.566515,-0.0469 z m 4.262245,-10.51979 c -0.129885,-0.0566 -0.347536,-0.22975 -0.483668,-0.3848 -0.623685,-0.71034 -0.258773,-1.83489 0.677199,-2.08692 0.204157,-0.055 3.716501,-0.0747 10.817887,-0.0607 l 10.515579,0.0207 0.31453,0.20816 c 0.88235,0.58394 0.74466,1.95866 -0.2333,2.3292 -0.35397,0.13411 -21.298626,0.10932 -21.608227,-0.0256 z m 24.879727,-0.0142 c -0.51717,-0.26966 -0.7436,-0.64256 -0.7431,-1.22376 6e-4,-0.53721 0.33878,-0.99346 0.8966,-1.20917 0.33248,-0.12857 10.07311,-0.14242 10.45478,-0.0149 0.60129,0.20096 0.96569,0.74238 0.91457,1.35884 -0.0408,0.49133 -0.27053,0.84289 -0.69123,1.05751 -0.293,0.14948 -0.47674,0.15468 -5.45016,0.15421 -4.51456,-2.9e-4 -5.17575,-0.0155 -5.38146,-0.12277 z m -29.31701,-5.00138 c -0.669178,-0.24744 -1.310722,-0.86761 -1.551397,-1.49971 -0.499422,-1.31165 0.03038,-2.71206 1.273908,-3.36725 l 0.413411,-0.21783 8.383889,-0.0209 c 8.31436,-0.0208 8.387482,-0.0196 8.816988,0.14111 0.571075,0.21367 1.159295,0.75147 1.434197,1.31128 0.190677,0.38829 0.21908,0.53741 0.21908,1.15023 0,0.611 -0.02865,0.76244 -0.216742,1.14544 -0.240428,0.48959 -0.724203,0.97816 -1.242349,1.25466 l -0.340268,0.18158 -8.449164,0.0148 c -7.023594,0.0123 -8.498498,-0.004 -8.741553,-0.0934 z m 44.62201,-13.80636 0.23329,-0.23328 -0.0242,-2.13326 c -0.0255,-2.25481 -0.0432,-2.36882 -0.43689,-2.8178 -0.11385,-0.12985 -1.39399,-0.13691 -24.81742,-0.13691 -23.42343,0 -24.703572,0.007 -24.817421,0.13691 -0.393672,0.44898 -0.411347,0.56299 -0.436891,2.8178 l -0.02417,2.13326 0.23329,0.23328 0.233288,0.23329 h 24.811894 24.81191 z m -4.52704,-0.19563 c -0.46262,-0.20111 -0.70819,-0.87271 -0.48153,-1.3169 0.048,-0.094 0.26683,-0.35576 0.48639,-0.58172 l 0.3992,-0.41084 -0.43838,-0.44972 c -0.24111,-0.24735 -0.47759,-0.52663 -0.52551,-0.62061 -0.20323,-0.39859 -0.0197,-0.94199 0.40562,-1.20137 0.48719,-0.29705 0.88684,-0.18443 1.53314,0.43203 l 0.44867,0.42796 0.34694,-0.35645 c 0.43099,-0.44281 0.68345,-0.5786 1.07571,-0.5786 0.65727,0 1.15779,0.78291 0.86604,1.35466 -0.048,0.094 -0.26482,0.35372 -0.48192,0.57718 l -0.39472,0.40631 0.43941,0.47461 c 0.48706,0.52609 0.59625,0.83979 0.44831,1.28806 -0.16492,0.49971 -0.78091,0.77588 -1.2653,0.56728 -0.1443,-0.0621 -0.43721,-0.29312 -0.65092,-0.51329 l -0.38855,-0.4003 -0.43289,0.42631 c -0.59725,0.58817 -0.89557,0.69022 -1.38971,0.4754 z"
       id="path1347" />
  </g>
</svg>
