<?xml version="1.0" encoding="UTF-8" standalone="no"?>
<!-- Created with Inkscape (http://www.inkscape.org/) -->

<svg
   width="132.71272mm"
   height="107.82278mm"
   viewBox="0 0 132.71272 107.82277"
   version="1.1"
   id="svg5"
   xmlns="http://www.w3.org/2000/svg"
   xmlns:svg="http://www.w3.org/2000/svg">
  <defs
     id="defs2" />
  <g
     id="layer1"
     transform="translate(-13.472431,-80.203851)">
    <path
       style="fill:#ffffff;stroke-width:0.135494"
       d="m 23.364201,187.83219 c -1.27648,-0.45041 -2.22455,-1.32732 -2.83388,-2.62119 l -0.35095,-0.74521 v -21.88224 c 0,-17.90601 0.0339,-22.10177 0.18656,-23.09034 0.10261,-0.66445 0.48368,-2.09501 0.84684,-3.17902 0.36315,-1.08402 0.66027,-2.0149 0.66027,-2.06863 0,-0.0537 -1.42259,-0.11698 -3.16132,-0.14057 l -3.16133,-0.0429 -0.66637,-0.40714 c -0.84446,-0.51595 -1.41159,-1.53871 -1.41159,-2.54565 0,-0.7938 1.56088,-5.68667 2.20347,-6.90719 0.54483,-1.03483 1.98167,-2.37976 3.16541,-2.96291 l 0.9246,-0.4555 3.35679,-0.0425 c 3.01015,-0.0381 3.36967,-0.0665 3.48156,-0.27561 0.0686,-0.12823 0.64176,-1.72488 1.27363,-3.54812 5.65648,-16.32169 8.565193,-24.176157 9.607154,-25.942437 0.682974,-1.15774 2.513867,-3.00181 3.891665,-3.91966 2.551625,-1.699831 7.411426,-3.772436 10.984831,-4.684807 10.594821,-2.705098 40.274308,-2.924033 53.246639,-0.392782 0.78248,0.152682 2.36776,0.553394 3.52284,0.89047 5.36609,1.565932 8.63555,3.182063 10.99774,5.436319 1.41481,1.35017 1.9877,2.28965 3.08092,5.05243 1.34804,3.40674 6.10918,16.587527 9.24628,25.597497 l 0.58971,1.69367 3.45509,0.0677 3.45509,0.0678 0.92584,0.43851 c 1.1581,0.54851 2.61363,1.91947 3.17546,2.99096 0.2223,0.42396 0.79129,1.92931 1.26441,3.34522 0.72479,2.16905 0.86076,2.72371 0.86356,3.52284 0.004,1.11819 -0.38333,1.96161 -1.13232,2.4661 -0.75428,0.50806 -1.30313,0.58096 -4.37989,0.58175 l -2.94127,8.1e-4 0.72229,2.06628 c 0.41046,1.17426 0.80283,2.59273 0.90886,3.28573 0.15264,0.99762 0.18658,5.19997 0.18658,23.10168 v 21.88225 l -0.36047,0.76894 c -0.48093,1.02591 -1.2856,1.8716 -2.24185,2.35613 l -0.78503,0.39771 h -9.82329 -9.8233 l -0.76439,-0.37539 c -0.93102,-0.45721 -1.78042,-1.35016 -2.26248,-2.3785 l -0.36047,-0.76895 -0.0416,-4.91165 -0.0416,-4.91165 H 79.86437 46.683861 l -0.0416,4.91165 -0.0416,4.91165 -0.360469,0.76895 c -0.482068,1.02834 -1.331466,1.92129 -2.262485,2.3785 l -0.76439,0.37539 -9.620056,0.0292 c -8.48611,0.0258 -9.69184,0.004 -10.22905,-0.18566 z m 25.69941,-33.2491 c 3.126026,-0.41828 4.384422,-1.54348 4.376502,-3.91326 -0.0038,-1.13227 -0.321207,-1.84915 -1.191035,-2.68989 -0.999803,-0.96637 -2.45108,-1.76666 -6.466157,-3.56566 -8.228497,-3.68689 -10.9757,-4.59369 -13.91691,-4.59369 -2.37616,0 -3.6892,0.5198 -4.40697,1.74459 -0.58449,0.99735 -0.70243,1.93072 -0.70407,5.57208 -0.001,3.20336 0.01,3.34358 0.31747,4.0046 0.87825,1.88605 3.71932,3.05298 8.349978,3.42962 2.09399,0.17032 12.389587,0.17908 13.641192,0.0116 z m 74.978509,-8.1e-4 c 4.70052,-0.36775 7.59924,-1.48245 8.56886,-3.29515 0.28896,-0.5402 0.299,-0.69151 0.29345,-4.42092 -0.005,-3.34465 -0.0375,-3.94319 -0.24267,-4.47129 -0.41803,-1.07579 -0.8757,-1.59537 -1.81076,-2.0557 -0.80715,-0.39736 -0.99462,-0.43252 -2.61829,-0.49115 -1.48531,-0.0536 -1.94849,-0.017 -3.07315,0.24285 -2.37633,0.54912 -5.11592,1.59987 -10.94752,4.19882 -4.3503,1.93878 -5.73148,2.6981 -6.7928,3.73442 -1.00426,0.98061 -1.35804,1.89117 -1.19802,3.08347 0.28456,2.12026 1.464,3.06476 4.33249,3.46948 1.18924,0.16779 11.35997,0.17169 13.48841,0.005 z M 88.53597,127.2167 c 12.13826,-0.47374 23.06087,-1.82809 31.09582,-3.85573 2.97661,-0.75115 3.33937,-0.87697 3.26358,-1.13192 -0.0369,-0.12424 -0.25674,-0.98804 -0.48845,-1.91956 -1.4828,-5.96104 -3.69731,-12.81917 -6.89085,-21.340267 -1.14693,-3.06025 -1.25441,-3.28439 -1.82429,-3.80411 -2.54697,-2.32281 -9.95228,-3.96623 -21.023251,-4.66556 -6.404075,-0.40454 -19.78303,-0.40393 -26.247449,10e-4 -11.267241,0.70611 -17.942844,2.20877 -20.398155,4.59156 -0.718916,0.69769 -0.849313,0.96258 -2.253779,4.57833 -2.804001,7.218817 -4.418622,12.241407 -6.371553,19.819937 -0.536566,2.08219 -0.704823,2.93454 -0.592938,3.00369 0.263486,0.16285 3.299824,0.93566 5.798933,1.47596 7.815831,1.68976 17.63053,2.82487 27.97946,3.23592 4.005113,0.15908 13.996777,0.16496 17.952922,0.0106 z"
       id="path2539" />
  </g>
</svg>
