<?xml version="1.0" encoding="UTF-8" standalone="no"?>
<!-- Created with Inkscape (http://www.inkscape.org/) -->

<svg
   width="128.69012mm"
   height="67.746895mm"
   viewBox="0 0 128.69012 67.746891"
   version="1.1"
   id="svg5"
   xmlns="http://www.w3.org/2000/svg"
   xmlns:svg="http://www.w3.org/2000/svg">
  <defs
     id="defs2" />
  <g
     id="layer1"
     transform="translate(-15.851519,-97.724724)">
    <path
       style="fill:#ffffff;stroke-width:0.162167"
       d="m 75.620423,165.26176 c -5.518868,-0.34482 -8.788057,-0.83842 -14.432915,-2.17915 -4.246036,-1.00849 -8.239753,-2.39578 -13.216656,-4.59101 -1.751204,-0.77245 -5.632774,-2.82137 -7.946211,-4.19451 -6.394221,-3.79527 -12.330907,-8.67071 -17.693761,-14.5308 -2.367771,-2.58731 -6.589085,-7.97455 -6.47718,-8.26618 0.194121,-0.50586 4.488779,-5.90043 6.07425,-7.62993 1.692631,-1.84638 4.824021,-5.03971 5.609785,-5.72072 5.906875,-5.11946 9.69108,-7.79493 15.568087,-11.00678 2.699353,-1.47522 3.454603,-1.83742 6.973208,-3.34427 3.675514,-1.57406 9.879392,-3.52153 13.70316,-4.301594 0.490557,-0.100132 1.183822,-0.249091 1.540591,-0.331126 3.014611,-0.693204 10.792023,-1.443901 14.92883,-1.440957 2.010997,0.0011 8.517298,0.421946 10.00443,0.646629 0.602049,0.09088 1.623703,0.243928 2.270355,0.339945 0.64664,0.09601 1.467618,0.236458 1.824379,0.31207 0.356771,0.0756 1.232476,0.260241 1.946019,0.410249 3.404774,0.715754 6.904446,1.716314 10.378726,2.967294 2.71464,0.97746 3.12597,1.13174 3.69272,1.38514 0.288,0.12885 1.28987,0.5766 2.22639,0.9952 6.05399,2.70601 12.2462,6.62619 17.91952,11.34458 3.6596,3.04361 8.53925,8.13397 11.51391,12.01107 0.53514,0.69751 1.31962,1.70528 1.7433,2.2395 0.42366,0.53423 0.77029,1.09603 0.77029,1.24846 0,0.15248 -0.38311,0.75322 -0.85138,1.33512 -0.46825,0.58188 -1.47167,1.84993 -2.22981,2.81787 -3.92921,5.01656 -9.141,10.14565 -13.84477,13.62505 -5.70087,4.21699 -9.85454,6.6816 -15.58864,9.24979 -2.6636,1.19297 -3.13866,1.38721 -5.35153,2.18826 -0.98112,0.35517 -2.00278,0.70356 -2.27036,0.77418 -0.26756,0.0707 -0.81489,0.24239 -1.21625,0.38166 -1.81897,0.63115 -7.196402,1.89044 -9.81114,2.29756 -4.659874,0.72556 -4.297126,0.68603 -8.919211,0.97178 -4.439982,0.27445 -4.37466,0.27449 -8.838136,-0.003 z m 6.81104,-8.91647 c 2.160132,-0.13925 4.786768,-0.70086 6.405621,-1.36941 3.821367,-1.57812 6.067636,-2.97374 8.490552,-5.27527 3.620504,-3.43914 6.022444,-7.62068 7.126124,-12.40582 0.56118,-2.43308 0.59995,-2.81253 0.59706,-5.84352 -0.002,-1.90588 -0.0776,-3.42395 -0.19025,-3.81093 -0.10303,-0.35377 -0.30745,-1.18576 -0.45437,-1.84889 -1.02485,-4.62581 -3.30871,-8.60339 -7.000633,-12.19241 -3.121484,-3.03447 -7.633246,-5.46331 -11.690212,-6.29327 -0.468255,-0.0958 -1.234506,-0.25956 -1.702761,-0.36391 -0.481774,-0.10738 -2.153795,-0.18977 -3.851479,-0.18977 -1.697684,0 -3.369704,0.0824 -3.85148,0.18977 -0.468258,0.10426 -1.2345,0.26859 -1.702759,0.36496 -4.741955,0.97587 -10.226447,4.32797 -13.486781,8.24304 -2.03301,2.44129 -3.568406,5.15297 -4.564436,8.0613 -0.457258,1.33517 -0.545921,1.69216 -0.981847,3.95356 -0.369527,1.91693 -0.358394,6.22468 0.02116,8.18947 0.155063,0.80272 0.317285,1.69735 0.360478,1.98804 0.04319,0.2907 0.143443,0.56867 0.222781,0.61772 0.07934,0.0492 0.144652,0.21254 0.145144,0.36337 9.8e-4,0.31828 1.14641,3.3175 1.625695,4.25696 1.569782,3.07703 4.817105,6.8024 7.779122,8.92431 1.114125,0.79811 3.974897,2.32314 5.756949,3.06892 0.60548,0.2534 2.428517,0.77643 3.405519,0.97705 1.25749,0.2582 4.884609,0.61911 5.513699,0.54864 0.267577,-0.03 1.17977,-0.0992 2.027095,-0.15399 z m -3.892023,-7.63698 c -3.472208,-0.27137 -7.498446,-2.09685 -10.110418,-4.58402 -1.173078,-1.11703 -2.749666,-3.19564 -3.396513,-4.4781 -0.810128,-1.60614 -1.036608,-2.19619 -1.519512,-3.95874 -0.37131,-1.35524 -0.427352,-1.87775 -0.436382,-4.06853 -0.0093,-2.24427 0.07692,-3.027 0.479323,-4.35427 0.0388,-0.1281 0.35829,0.17761 0.769036,0.73549 2.164536,2.94032 5.886733,4.38306 9.129173,3.53852 2.343849,-0.6105 4.126804,-1.84382 5.385004,-3.725 1.06039,-1.58542 1.484131,-2.97607 1.484131,-4.87072 0,-2.77307 -1.246504,-5.29796 -3.409613,-6.90647 -0.622093,-0.4626 -1.131078,-0.89404 -1.131078,-0.95879 0,-0.30219 2.165331,-0.56674 4.540691,-0.55479 1.998425,0.009 2.779495,0.0822 3.810942,0.35181 6.9536,1.81783 11.691673,6.82583 13.049203,13.79264 0.219642,1.12718 0.214859,4.80118 -0.0078,5.89875 -0.873586,4.30873 -2.963447,7.79152 -6.311576,10.51842 -1.524798,1.24187 -4.273922,2.60323 -6.324534,3.13187 -1.519786,0.39183 -4.331613,0.62236 -6.000203,0.49193 z m -26.271149,1.80859 c 0,-0.13075 -0.298144,-0.69634 -0.662543,-1.25678 -0.843398,-1.2972 -2.646179,-4.92758 -2.989748,-6.02066 -0.144597,-0.46002 -0.32054,-0.98234 -0.391006,-1.16074 -0.483357,-1.22365 -1.131108,-4.17245 -1.478336,-6.72996 -0.205368,-1.51261 -0.11941,-6.87416 0.13649,-8.51379 0.335033,-2.14664 0.92191,-4.65038 1.330435,-5.67587 0.07106,-0.17836 0.292316,-0.79866 0.491673,-1.37842 0.439582,-1.27833 2.054142,-4.538 2.951549,-5.95896 0.45326,-0.71769 0.60255,-1.08805 0.485679,-1.20492 -0.279591,-0.2796 -6.784227,3.09925 -9.279912,4.82047 -0.401365,0.27682 -1.204094,0.82422 -1.783842,1.21641 -3.768968,2.54985 -6.581671,4.9182 -10.378725,8.73911 -3.053118,3.07229 -3.846145,4.04712 -3.620437,4.45044 0.07591,0.13565 0.995975,1.19705 2.044562,2.35863 4.359897,4.8297 10.612198,9.86111 16.25204,13.07848 2.504656,1.42884 6.427842,3.46374 6.689412,3.46971 0.111494,0.002 0.202709,-0.10237 0.202709,-0.23315 z m 58.607529,-0.98933 c 8.56254,-4.3567 15.09863,-9.3532 21.21947,-16.2212 0.78043,-0.87569 1.41896,-1.65227 1.41896,-1.72575 0,-0.19113 -3.0398,-3.50096 -4.86078,-5.29258 -1.98099,-1.94906 -4.35797,-4.0079 -6.40986,-5.55193 -1.51885,-1.14294 -5.99313,-4.19878 -6.14772,-4.19878 -0.0386,0 -0.67787,-0.37735 -1.42077,-0.83855 -1.88301,-1.16897 -6.29405,-3.2833 -6.47415,-3.10322 -0.0864,0.0863 0.18716,0.67174 0.67106,1.43571 1.90571,3.0087 3.37636,6.6621 4.17486,10.37119 0.54491,2.53113 0.60177,3.22285 0.59978,7.29754 -0.002,4.93236 -0.16846,6.08784 -1.49167,10.37872 -0.22003,0.71353 -0.49532,1.51626 -0.61177,1.78384 -0.74523,1.71255 -0.97344,2.20838 -1.40706,3.05731 -0.67395,1.31939 -0.9812,1.85117 -1.58242,2.7387 -0.46353,0.68429 -0.54022,1.09611 -0.2041,1.09611 0.0629,0 1.1997,-0.55219 2.52617,-1.22711 z"
       id="path2782" />
  </g>
</svg>
